<svg width="30" height="30" viewBox="0 0 30 30" fill="none" xmlns="http://www.w3.org/2000/svg">
<path fill-rule="evenodd" clip-rule="evenodd" d="M18.0671 4.754L24.3197 9.37242C25.5248 10.2445 26.2418 11.6389 26.25 13.1264V21.4869C26.1725 24.1677 23.9458 26.2834 21.2645 26.2237H8.74737C6.0615 26.2901 3.82743 24.1725 3.75 21.4869V13.1264C3.75824 11.6389 4.47523 10.2445 5.68026 9.37242L11.9329 4.754C13.7585 3.41533 16.2415 3.41533 18.0671 4.754ZM9.67105 21.2145H20.3289C20.8195 21.2145 21.2171 20.8169 21.2171 20.3264C21.2171 19.8358 20.8195 19.4382 20.3289 19.4382H9.67105C9.18054 19.4382 8.7829 19.8358 8.7829 20.3264C8.7829 20.8169 9.18054 21.2145 9.67105 21.2145Z" fill="black"/>
</svg>
