<svg width="30" height="30" viewBox="0 0 30 30" fill="none" xmlns="http://www.w3.org/2000/svg">
<path d="M25.85 18L26.6 12.825L26.55 12.775C26.7165 11.6361 26.3812 10.481 25.6308 9.6083C24.8804 8.7356 23.7885 8.23101 22.6375 8.22502H9.60002L9.33752 7.36252C8.8376 5.70183 7.32158 4.55471 5.58752 4.52502H4.33752C3.81976 4.52502 3.40002 4.94476 3.40002 5.46252C3.40002 5.98029 3.81976 6.40002 4.33752 6.40002H5.58752C6.51624 6.40001 7.33468 7.01002 7.60002 7.90002L10.7625 18.5625C11.2728 20.2426 12.8191 21.3935 14.575 21.4H21.9125C23.8834 21.3915 25.5544 19.9486 25.85 18Z" fill="black"/>
<path d="M14.2875 22.975C13.5971 22.975 13.0375 23.5347 13.0375 24.225C13.0375 24.9154 13.5971 25.475 14.2875 25.475C14.9778 25.475 15.5375 24.9154 15.5375 24.225C15.5375 23.5347 14.9778 22.975 14.2875 22.975Z" fill="black"/>
<path d="M21.7875 22.975C21.0971 22.975 20.5375 23.5347 20.5375 24.225C20.5375 24.9154 21.0971 25.475 21.7875 25.475C22.4778 25.475 23.0375 24.9154 23.0375 24.225C23.0375 23.5347 22.4778 22.975 21.7875 22.975Z" fill="black"/>
</svg>
