<svg width="30" height="30" viewBox="0 0 30 30" fill="none" xmlns="http://www.w3.org/2000/svg">
<path fill-rule="evenodd" clip-rule="evenodd" d="M24.475 20.8875L24.775 22.3125C25.0593 23.5445 24.7786 24.839 24.0096 25.8427C23.2405 26.8463 22.0635 27.454 20.8 27.5H9.2C7.93646 27.454 6.75946 26.8463 5.99043 25.8427C5.2214 24.839 4.9407 23.5445 5.225 22.3125L5.525 20.8875C5.87004 18.9584 7.52827 17.5408 9.4875 17.5H20.5125C22.4717 17.5408 24.13 18.9584 24.475 20.8875ZM20.8 25.6125C21.4347 25.6051 22.0321 25.311 22.425 24.8125V24.825C22.9071 24.2202 23.0949 23.4322 22.9375 22.675L22.6375 21.25C22.471 20.1939 21.5808 19.4032 20.5125 19.3625H9.4875C8.41921 19.4032 7.52895 20.1939 7.3625 21.25L7.0625 22.675C6.90894 23.4282 7.09658 24.2108 7.575 24.8125C7.96792 25.311 8.56526 25.6051 9.2 25.6125H20.8Z" fill="black"/>
<path fill-rule="evenodd" clip-rule="evenodd" d="M15.625 15H14.375C11.6136 15 9.37498 12.7614 9.37498 9.99996V6.69996C9.37164 5.58503 9.81307 4.51481 10.6014 3.72643C11.3898 2.93805 12.46 2.49662 13.575 2.49996H16.425C17.5399 2.49662 18.6101 2.93805 19.3985 3.72643C20.1869 4.51481 20.6283 5.58503 20.625 6.69996V9.99996C20.625 12.7614 18.3864 15 15.625 15ZM13.575 4.37496C12.2909 4.37496 11.25 5.4159 11.25 6.69996V9.99996C11.25 11.7258 12.6491 13.125 14.375 13.125H15.625C17.3509 13.125 18.75 11.7258 18.75 9.99996V6.69996C18.75 6.08333 18.505 5.49196 18.069 5.05593C17.633 4.61991 17.0416 4.37496 16.425 4.37496H13.575Z" fill="black"/>
</svg>
