<svg width="52" height="52" viewBox="0 0 52 52" fill="none" xmlns="http://www.w3.org/2000/svg">
<path d="M36.0533 47.6666H15.9467C13.7565 47.587 11.7164 46.5335 10.3834 44.7939C9.05044 43.0543 8.56389 40.8104 9.05667 38.675L9.57667 36.205C10.1747 32.8613 13.049 30.4041 16.445 30.3333H35.555C38.951 30.4041 41.8253 32.8613 42.4233 36.205L42.9433 38.675C43.4361 40.8104 42.9496 43.0543 41.6166 44.7939C40.2836 46.5335 38.2435 47.587 36.0533 47.6666Z" fill="#1E1E1E"/>
<path d="M27.0833 26H24.9167C20.1302 26 16.25 22.1198 16.25 17.3333V11.6133C16.2442 9.68074 17.0094 7.82569 18.3759 6.45917C19.7424 5.09265 21.5975 4.32751 23.53 4.33328H28.47C30.4025 4.32751 32.2576 5.09265 33.6241 6.45917C34.9906 7.82569 35.7558 9.68074 35.75 11.6133V17.3333C35.75 19.6318 34.8369 21.8362 33.2116 23.4615C31.5863 25.0869 29.3819 26 27.0833 26Z" fill="#1E1E1E"/>
</svg>
