<svg width="30" height="30" viewBox="0 0 30 30" fill="none" xmlns="http://www.w3.org/2000/svg">
<path fill-rule="evenodd" clip-rule="evenodd" d="M4.3374 5.3125H5.5874L5.6499 5.325C7.3826 5.35861 8.89657 6.50418 9.3999 8.1625L9.6499 9.025H22.6874C23.8387 9.03024 24.9319 9.53129 25.6874 10.4C26.4408 11.2742 26.7742 12.4342 26.5999 13.575L25.8499 18.75C25.6001 20.7336 23.9241 22.2282 21.9249 22.25H14.5749C12.819 22.2435 11.2727 21.0926 10.7624 19.4125L7.5999 8.75C7.35773 7.83523 6.53366 7.19542 5.5874 7.1875H4.3374C3.81964 7.1875 3.3999 6.76777 3.3999 6.25C3.3999 5.73223 3.81964 5.3125 4.3374 5.3125ZM12.5624 18.8125C12.8277 19.7025 13.6462 20.3125 14.5749 20.3125H21.9249C22.9595 20.3013 23.8356 19.5465 23.9999 18.525L24.7499 13.3375C24.852 12.7337 24.6855 12.1153 24.2939 11.6445C23.9024 11.1736 23.3247 10.8971 22.7124 10.8875H10.2124L12.5624 18.8125Z" fill="black"/>
<path d="M14.2874 23.75C13.597 23.75 13.0374 24.3096 13.0374 25C13.0374 25.6904 13.597 26.25 14.2874 26.25C14.9778 26.25 15.5374 25.6904 15.5374 25C15.5374 24.3096 14.9778 23.75 14.2874 23.75Z" fill="black"/>
<path d="M21.7874 23.75C21.097 23.75 20.5374 24.3096 20.5374 25C20.5374 25.6904 21.097 26.25 21.7874 26.25C22.4778 26.25 23.0374 25.6904 23.0374 25C23.0374 24.3096 22.4778 23.75 21.7874 23.75Z" fill="black"/>
</svg>
